Coordinates
version=1
nRows=52
nColumns=24
inDegrees=no

Units are S.I. units (second, meters, Newtons, ...)
If the header above contains a line with 'inDegrees', this indicates whether rotational values are in degrees (yes) or radians (no).

endheader
time	pelvis_tilt	pelvis_list	pelvis_rotation	pelvis_tx	pelvis_ty	pelvis_tz	hip_flexion_r	hip_adduction_r	hip_rotation_r	knee_angle_r	ankle_angle_r	subtalar_angle_r	mtp_angle_r	hip_flexion_l	hip_adduction_l	hip_rotation_l	knee_angle_l	ankle_angle_l	subtalar_angle_l	mtp_angle_l	lumbar_extension	lumbar_bending	lumbar_rotation
3.835	0.0197563	-0.0313138	1.53437	0.578506	0.983394	-0.222809	0.0996006	0.0327221	-0.124676	-0.266522	0.385577	-0.0375714	0	0.0529466	-0.038062	-0.148089	-0.116283	0.216638	-0.0407653	0	0	0	0
3.84	0.0176997	-0.0330312	1.53264	0.578735	0.983016	-0.223348	0.102643	0.0313526	-0.119211	-0.270143	0.389728	-0.0399312	0	0.0547483	-0.0361836	-0.149605	-0.117666	0.217701	-0.0418316	0	0	0	0
3.845	0.0166989	-0.0334966	1.53227	0.578549	0.982853	-0.224189	0.102863	0.0300782	-0.117592	-0.271603	0.393027	-0.0394964	0	0.0552842	-0.0351882	-0.152211	-0.11958	0.219249	-0.0393338	0	0	0	0
3.85	0.0163113	-0.0338886	1.53135	0.578959	0.982771	-0.225074	0.102523	0.0303409	-0.115264	-0.272063	0.395053	-0.0402174	0	0.0553313	-0.0355148	-0.155779	-0.121225	0.221906	-0.0345752	0	0	0	0
3.855	0.0165188	-0.034047	1.53214	0.579585	0.982756	-0.226248	0.10076	0.0315849	-0.115408	-0.270822	0.395011	-0.0405995	0	0.0542174	-0.0364668	-0.156349	-0.121484	0.224087	-0.0321326	0	0	0	0
3.86	0.0167849	-0.0359535	1.53264	0.58012	0.982597	-0.227452	0.10117	0.0327909	-0.115422	-0.270149	0.394598	-0.0402703	0	0.0547756	-0.0372488	-0.155189	-0.121377	0.225246	-0.0328357	0	0	0	0
3.865	0.0166615	-0.0379579	1.53296	0.580365	0.982388	-0.228584	0.102242	0.0329473	-0.115593	-0.270678	0.395543	-0.0383646	0	0.0557518	-0.0373146	-0.154943	-0.121506	0.226218	-0.0335741	0	0	0	0
3.87	0.0159055	-0.0379989	1.53322	0.580322	0.982223	-0.229763	0.10124	0.0319291	-0.116035	-0.271389	0.397221	-0.0358718	0	0.0545448	-0.0364156	-0.156147	-0.121393	0.227525	-0.0326977	0	0	0	0
3.875	0.0146856	-0.0367309	1.53392	0.580206	0.982151	-0.231033	0.0986339	0.0301584	-0.117796	-0.27196	0.400136	-0.0323086	0	0.0521646	-0.0349201	-0.156397	-0.121846	0.228849	-0.0323815	0	0	0	0
3.88	0.0138011	-0.0367788	1.53501	0.580358	0.982109	-0.232212	0.0973528	0.0291385	-0.119624	-0.272226	0.402095	-0.0301329	0	0.0517123	-0.0341295	-0.154427	-0.123269	0.230053	-0.0334453	0	0	0	0
3.885	0.0137952	-0.0364388	1.53545	0.580627	0.982004	-0.233378	0.0955358	0.0294515	-0.119744	-0.272019	0.402659	-0.0299333	0	0.0494542	-0.0341182	-0.153964	-0.122134	0.232113	-0.0332453	0	0	0	0
3.89	0.0131788	-0.0356844	1.53513	0.580761	0.981879	-0.234563	0.093636	0.0288007	-0.119701	-0.272432	0.404055	-0.0286872	0	0.0477895	-0.0338735	-0.15804	-0.123134	0.234764	-0.0277725	0	0	0	0
3.895	0.0124396	-0.0356976	1.53496	0.580899	0.981697	-0.235774	0.0927938	0.0277658	-0.121132	-0.273431	0.406853	-0.0256593	0	0.0488658	-0.0341322	-0.162776	-0.127915	0.238698	-0.0197521	0	0	0	0
3.9	0.0117193	-0.0364584	1.53473	0.581207	0.981477	-0.237038	0.0925091	0.0271932	-0.121793	-0.273952	0.408434	-0.0244024	0	0.050246	-0.034175	-0.164579	-0.131892	0.241682	-0.0169676	0	0	0	0
3.905	0.0112578	-0.0396147	1.53261	0.581377	0.981031	-0.238304	0.0952882	0.0268734	-0.11934	-0.275375	0.409926	-0.0234945	0	0.0530295	-0.0337755	-0.165645	-0.13415	0.243717	-0.0194673	0	0	0	0
3.91	0.0107453	-0.0374316	1.53521	0.58187	0.98115	-0.239411	0.0909702	0.0270226	-0.120664	-0.274294	0.409724	-0.0241353	0	0.0512994	-0.0338396	-0.162096	-0.137166	0.244232	-0.020859	0	0	0	0
3.915	0.0113855	-0.0356545	1.53419	0.582213	0.981148	-0.240475	0.0881017	0.0279954	-0.118978	-0.274603	0.40929	-0.0234143	0	0.0504443	-0.0353235	-0.16591	-0.142046	0.24746	-0.0176549	0	0	0	0
3.92	0.0143923	-0.042073	1.5337	0.582942	0.980558	-0.241341	0.0939826	0.0330288	-0.113981	-0.274485	0.406512	-0.0296814	0	0.0602041	-0.0401964	-0.16733	-0.150197	0.253749	-0.0144726	0	0	0	0
3.925	0.0152812	-0.0477332	1.53558	0.583374	0.980072	-0.242583	0.098232	0.0349451	-0.114063	-0.273883	0.406229	-0.0322874	0	0.0676939	-0.042006	-0.165657	-0.155416	0.25735	-0.0139051	0	0	0	0
3.93	0.0149256	-0.0494241	1.53702	0.583637	0.979821	-0.243945	0.0982595	0.0348258	-0.115824	-0.273499	0.406486	-0.0317253	0	0.0703249	-0.0422019	-0.165355	-0.159701	0.25937	-0.0135084	0	0	0	0
3.935	0.0156753	-0.0500441	1.53671	0.58411	0.979526	-0.245138	0.0976238	0.0363069	-0.114943	-0.273547	0.406939	-0.0328656	0	0.073078	-0.0440189	-0.165919	-0.166547	0.263193	-0.0128799	0	0	0	0
3.94	0.0167028	-0.0509384	1.53625	0.584768	0.979227	-0.24618	0.0972571	0.0385615	-0.111925	-0.27327	0.406857	-0.036128	0	0.076954	-0.0464147	-0.165963	-0.174808	0.26726	-0.0125704	0	0	0	0
3.945	0.0171946	-0.0527624	1.53651	0.585491	0.978837	-0.247083	0.097941	0.0407697	-0.107519	-0.272798	0.405816	-0.043966	0	0.0823404	-0.0485626	-0.165185	-0.183561	0.270834	-0.0115806	0	0	0	0
3.95	0.0178232	-0.0540685	1.53685	0.585991	0.9785	-0.248183	0.0983486	0.0420442	-0.107598	-0.273301	0.405492	-0.0447409	0	0.0869097	-0.0504486	-0.164413	-0.19218	0.274935	-0.0107718	0	0	0	0
3.955	0.0184493	-0.0552712	1.53606	0.586395	0.978147	-0.249613	0.0981622	0.0431392	-0.107294	-0.273189	0.401355	-0.0422166	0	0.0904052	-0.0517972	-0.164852	-0.19996	0.279819	-0.0112647	0	0	0	0
3.96	0.0197996	-0.0574476	1.53588	0.586737	0.977691	-0.251052	0.098024	0.0453766	-0.106053	-0.269404	0.375949	-0.0589697	0	0.0951027	-0.0536329	-0.163247	-0.207867	0.284053	-0.0148287	0	0	0	0
3.965	0.0214834	-0.0588229	1.53603	0.587274	0.977286	-0.252297	0.0980099	0.047597	-0.10658	-0.269785	0.379136	-0.0612202	0	0.0998357	-0.0562951	-0.161044	-0.216962	0.287133	-0.0186316	0	0	0	0
3.97	0.0230875	-0.0600534	1.53606	0.58761	0.976863	-0.253682	0.0976654	0.0494246	-0.107294	-0.269899	0.380196	-0.0630649	0	0.105269	-0.0591038	-0.159846	-0.228001	0.291176	-0.0197003	0	0	0	0
3.975	0.0243354	-0.0602854	1.53615	0.587956	0.976481	-0.254976	0.0964356	0.0509761	-0.107659	-0.26971	0.377504	-0.0630204	0	0.11033	-0.0615154	-0.158658	-0.240282	0.296036	-0.0201966	0	0	0	0
3.98	0.0256159	-0.0623083	1.53692	0.588379	0.975919	-0.256233	0.0972797	0.0528838	-0.108812	-0.269576	0.377471	-0.0621257	0	0.117406	-0.0634073	-0.154785	-0.252526	0.300286	-0.0255357	0	0	0	0
3.985	0.0266049	-0.0643145	1.53833	0.588508	0.97538	-0.25775	0.097508	0.0536025	-0.1127	-0.269324	0.380224	-0.0600208	0	0.12398	-0.0641471	-0.148264	-0.263972	0.302491	-0.0357729	0	0	0	0
3.99	0.0292187	-0.0639403	1.5381	0.588968	0.975034	-0.259223	0.0947117	0.056607	-0.113209	-0.268042	0.38031	-0.0594387	0	0.126809	-0.067458	-0.143869	-0.273114	0.305296	-0.0417342	0	0	0	0
3.995	0.0330438	-0.0626971	1.53748	0.589524	0.974696	-0.260581	0.0910591	0.0611067	-0.112181	-0.26678	0.37975	-0.0592807	0	0.129503	-0.072727	-0.142591	-0.283871	0.312562	-0.0403374	0	0	0	0
4	0.0362983	-0.0638465	1.53799	0.590243	0.974247	-0.261712	0.0903673	0.0653927	-0.111635	-0.265785	0.37938	-0.0606627	0	0.132788	-0.0754897	-0.133063	-0.289822	0.314922	-0.0536009	0	0	0	0
4.005	0.0391111	-0.0660501	1.53888	0.590949	0.973713	-0.262872	0.0910122	0.0691391	-0.112358	-0.26523	0.379545	-0.060852	0	0.1359	-0.0766066	-0.117917	-0.293066	0.314958	-0.0749993	0	0	0	0
4.01	0.0417038	-0.0649966	1.5384	0.590973	0.97322	-0.264615	0.0877057	0.0709499	-0.116284	-0.265066	0.382164	-0.0538671	0	0.148328	-0.0835681	-0.126246	-0.323781	0.326966	-0.0552237	0	0	0	0
4.015	0.0451147	-0.0648229	1.53898	0.591278	0.972602	-0.266154	0.0848711	0.0747736	-0.116773	-0.263802	0.384141	-0.0536382	0	0.155088	-0.0880126	-0.122124	-0.34021	0.333914	-0.0579646	0	0	0	0
4.02	0.04979	-0.0689513	1.5422	0.592172	0.971836	-0.267074	0.0870235	0.0814118	-0.116201	-0.26201	0.383425	-0.0592666	0	0.145874	-0.0833145	-0.0797095	-0.313205	0.325335	-0.12773	0	0	0	0
4.025	0.054031	-0.0695263	1.54352	0.59264	0.971361	-0.268399	0.0849758	0.0859054	-0.118898	-0.260279	0.384381	-0.0561003	0	0.149632	-0.0867349	-0.0679961	-0.321002	0.328369	-0.142481	0	0	0	0
4.03	0.0579286	-0.0695061	1.54522	0.593149	0.971017	-0.269743	0.0818782	0.0901808	-0.121369	-0.257527	0.383502	-0.0531228	0	0.153694	-0.089109	-0.0514632	-0.330678	0.329072	-0.16114	0	0	0	0
4.035	0.0602636	-0.0682614	1.54503	0.593345	0.970375	-0.271204	0.078845	0.092413	-0.121923	-0.257713	0.384	-0.0494364	0	0.163883	-0.0927678	-0.0508069	-0.356401	0.335486	-0.158056	0	0	0	0
4.04	0.0649421	-0.0636918	1.54206	0.593168	0.969617	-0.273253	0.0718456	0.0954055	-0.126807	-0.25844	0.386042	-0.0340089	0	0.192525	-0.110971	-0.0930564	-0.428017	0.357621	-0.0870789	0	0	0	0
4.045	0.0696309	-0.0614331	1.54113	0.593364	0.968889	-0.274928	0.0676462	0.0996588	-0.128921	-0.259809	0.394254	-0.0299249	0	0.199773	-0.115438	-0.0859346	-0.451072	0.363871	-0.0951452	0	0	0	0
4.05	0.0708273	-0.0560028	1.53759	0.593949	0.969171	-0.2769	0.0582521	0.100489	-0.128554	-0.257635	0.398282	-0.0250509	0	0.199708	-0.120623	-0.0967279	-0.467517	0.365627	-0.0827056	0	0	0	0
4.055	0.0790294	-0.0541702	1.53633	0.594718	0.968426	-0.278392	0.0534043	0.109936	-0.126595	-0.256042	0.399196	-0.025683	0	0.211566	-0.131031	-0.0924846	-0.498726	0.370657	-0.0841626	0	0	0	0
4.06	0.0813542	-0.0522695	1.53389	0.595449	0.968015	-0.279955	0.049753	0.112864	-0.124534	-0.256907	0.401772	-0.0240051	0	0.218476	-0.135548	-0.0926828	-0.5202	0.369509	-0.0821008	0	0	0	0
4.065	0.0821279	-0.0495251	1.53205	0.595859	0.967658	-0.28158	0.0456893	0.113486	-0.124683	-0.258852	0.406102	-0.0206919	0	0.224863	-0.137641	-0.091673	-0.542084	0.366927	-0.0809707	0	0	0	0
4.07	0.0816416	-0.0453203	1.53061	0.596312	0.967833	-0.283398	0.0385674	0.112573	-0.12651	-0.257923	0.408167	-0.0160027	0	0.228067	-0.139212	-0.0940762	-0.561786	0.362717	-0.0735223	0	0	0	0
4.075	0.0826159	-0.0410507	1.52907	0.596767	0.967835	-0.285106	0.0317077	0.113075	-0.128884	-0.257642	0.410787	-0.0101435	0	0.232979	-0.141235	-0.0922404	-0.583283	0.356105	-0.0750563	0	0	0	0
4.08	0.084553	-0.0382613	1.52802	0.597158	0.967432	-0.286899	0.0265238	0.11477	-0.130991	-0.258012	0.415131	-0.00498055	0	0.241518	-0.143039	-0.0867618	-0.607727	0.349414	-0.0849025	0	0	0	0
4.085	0.0846002	-0.0353063	1.52753	0.597488	0.967139	-0.289139	0.0204312	0.114225	-0.135342	-0.257701	0.419749	0.00234567	0	0.248805	-0.144062	-0.0850916	-0.631458	0.34335	-0.0892919	0	0	0	0
4.09	0.0836503	-0.0302456	1.52758	0.597636	0.96706	-0.291598	0.0116849	0.112005	-0.142095	-0.257095	0.424826	0.0129191	0	0.253931	-0.143273	-0.0829414	-0.655739	0.334977	-0.0949264	0	0	0	0
